<?xml version="1.0" encoding="utf-8"?>
<!-- Generator: Adobe Illustrator 19.0.0, SVG Export Plug-In . SVG Version: 6.00 Build 0)  -->
<svg version="1.1" id="Layer_1" xmlns="http://www.w3.org/2000/svg" xmlns:xlink="http://www.w3.org/1999/xlink" x="0px" y="0px"
	 viewBox="-1063 3009 32 32" style="enable-background:new -1063 3009 32 32;" xml:space="preserve">
<style type="text/css">
	.st0{fill:#FFFFFF;}
</style>
<path class="st0" d="M-1059,3019h24c1.1,0,2-0.9,2-2s-0.9-2-2-2h-24c-1.1,0-2,0.9-2,2S-1060.1,3019-1059,3019z M-1035,3023h-24
	c-1.1,0-2,0.9-2,2s0.9,2,2,2h24c1.1,0,2-0.9,2-2S-1033.9,3023-1035,3023z M-1035,3031h-24c-1.1,0-2,0.9-2,2s0.9,2,2,2h24
	c1.1,0,2-0.9,2-2S-1033.9,3031-1035,3031z"/>
</svg>
