<?xml version="1.0" encoding="UTF-8"?>
<svg version="1.1" xmlns="http://www.w3.org/2000/svg" width="288" height="288">
<path d="M0 0 C3.45875627 1.56041922 6.60783334 3.53906477 9.8125 5.5625 C11.77892979 6.76468778 13.74642253 7.9651382 15.71484375 9.1640625 C16.74206543 9.79473633 17.76928711 10.42541016 18.82763672 11.07519531 C24.1234697 14.28839734 29.50048787 17.35836499 34.875 20.4375 C43.26636399 25.26397425 51.64277537 30.11465222 60 35 C67.34448071 39.29295644 74.70049513 43.56491045 82.07202148 47.8112793 C85.36189183 49.70644509 88.64984498 51.60490065 91.9375 53.50390625 C95.7227123 55.68992587 99.51408651 57.86435829 103.3125 60.02734375 C104.85433181 60.91377532 106.39601098 61.80047246 107.9375 62.6875 C108.62320068 63.07325195 109.30890137 63.45900391 110.01538086 63.85644531 C113.48647037 65.86661437 115.94568553 67.54121671 118 71 C118.38311005 73.72433281 118.38311005 73.72433281 118.39440918 76.90744019 C118.40575897 78.11590607 118.41710876 79.32437195 118.42880249 80.56945801 C118.42615924 81.90551824 118.42318803 83.24157786 118.41992188 84.57763672 C118.42726274 85.98719964 118.43584903 87.39675654 118.44558716 88.80630493 C118.46781177 92.63284838 118.47073334 96.45917654 118.46883965 100.28577566 C118.46871997 103.4815624 118.47728293 106.67730348 118.48561716 109.87307751 C118.50485514 117.41395112 118.50773385 124.95471404 118.50097656 132.49560547 C118.49433717 140.27105344 118.51719477 148.04602686 118.55429029 155.82137859 C118.58499589 162.5000818 118.59634636 169.17863244 118.59245348 175.85740483 C118.59038661 179.84497118 118.59585486 183.83216838 118.62034607 187.81966782 C118.64262491 191.57094074 118.6407269 195.32144298 118.62041855 199.07271957 C118.61538787 201.10166866 118.63501943 203.13063217 118.65542603 205.15948486 C118.56366077 215.09923647 118.56366077 215.09923647 115.57649231 218.77871704 C111.76855448 222.06167169 111.76855448 222.06167169 109.41796875 223.28125 C108.74652832 223.64041504 108.07508789 223.99958008 107.38330078 224.36962891 C106.65868652 224.74265137 105.93407227 225.11567383 105.1875 225.5 C103.5623627 226.36971155 101.93874111 227.24225949 100.31640625 228.1171875 C99.45289551 228.58092773 98.58938477 229.04466797 97.69970703 229.52246094 C92.94945917 232.12225295 88.2920896 234.87958522 83.625 237.625 C74.82318843 242.78502402 65.98857995 247.88449257 57.125 252.9375 C47.84303462 258.23085669 38.56980857 263.53857758 29.3125 268.875 C27.7025415 269.80022461 27.7025415 269.80022461 26.06005859 270.74414062 C21.2772812 273.49918648 16.51516352 276.2765472 11.80859375 279.16015625 C11.02895264 279.63404785 10.24931152 280.10793945 9.44604492 280.59619141 C8.03933429 281.45538743 6.63904435 282.32524048 5.24731445 283.20849609 C1.2752483 285.62881885 -1.38188828 286.88371274 -6 286 C-9.45005324 284.37521991 -12.643547 282.39383062 -15.875 280.375 C-17.82338745 279.18613653 -19.77263976 277.99868956 -21.72265625 276.8125 C-23.24850342 275.87857422 -23.24850342 275.87857422 -24.80517578 274.92578125 C-28.09298202 272.94395215 -31.41124984 271.02650927 -34.74609375 269.125 C-36.39085693 268.18454834 -36.39085693 268.18454834 -38.06884766 267.22509766 C-40.20716538 266.00545504 -42.34870819 264.79144699 -44.49365234 263.58349609 C-45.46125488 263.02742676 -46.42885742 262.47135742 -47.42578125 261.8984375 C-48.28598877 261.41036621 -49.14619629 260.92229492 -50.0324707 260.41943359 C-52 259 -52 259 -53 256 C-53.66 256 -54.32 256 -55 256 C-55.11591339 244.76034418 -55.20472552 233.52083085 -55.25906086 222.28069878 C-55.28514088 217.06126652 -55.32051016 211.84224357 -55.37719727 206.62304688 C-55.43157339 201.58502308 -55.46143254 196.54739267 -55.47438622 191.50909805 C-55.483616 189.58814426 -55.50163994 187.6672117 -55.52865028 185.74642563 C-55.56501539 183.05297282 -55.56994229 180.36113977 -55.56762695 177.66748047 C-55.59459152 176.47956657 -55.59459152 176.47956657 -55.62210083 175.26765442 C-55.58473795 171.24354934 -55.20670676 168.76019773 -52.63684082 165.57876587 C-49.95808837 162.95901145 -47.50305134 161.21612953 -44.23046875 159.40625 C-43.10688965 158.77581787 -41.98331055 158.14538574 -40.82568359 157.49584961 C-39.61297305 156.83053483 -38.40024474 156.16525244 -37.1875 155.5 C-35.92450622 154.795109 -34.66230954 154.08878803 -33.40087891 153.38110352 C-31.47183354 152.2990963 -29.54235857 151.21796227 -27.61035156 150.14125061 C-21.65150514 146.81974863 -15.75814355 143.3911773 -9.875 139.9375 C-7.94025289 138.80833888 -6.00535568 137.67943492 -4.0703125 136.55078125 C-0.27108341 134.331946 3.52208265 132.10321895 7.31088257 129.86665344 C9.70546893 128.45549559 12.10423167 127.05154499 14.50384521 125.6489563 C16.21466943 124.64571807 17.92014392 123.63337469 19.62548828 122.62084961 C20.6617334 122.01635986 21.69797852 121.41187012 22.765625 120.7890625 C23.68118164 120.24975098 24.59673828 119.71043945 25.54003906 119.15478516 C28 118 28 118 32 118 C32.22855169 124.86783733 32.38594448 131.73469243 32.49438477 138.60546875 C32.53959424 140.94145346 32.60097605 143.27718419 32.67895508 145.61230469 C32.78838716 148.97394395 32.83921873 152.33221486 32.87890625 155.6953125 C32.9485836 157.25658371 32.9485836 157.25658371 33.01966858 158.84939575 C33.02458184 165.9366476 33.02458184 165.9366476 30.17654419 168.89245605 C27.85234683 170.46877772 25.51457379 171.75329993 23 173 C21.82402035 173.69755877 20.65250652 174.40274735 19.48730469 175.11816406 C18.39321289 175.74432617 17.29912109 176.37048828 16.171875 177.015625 C15.27653046 177.52848053 15.27653046 177.52848053 14.36309814 178.05169678 C13.12057443 178.76228602 11.87714319 179.47129072 10.6328125 180.17871094 C8.73677173 181.25752667 6.8448232 182.34327878 4.953125 183.4296875 C3.73461183 184.12541495 2.51586993 184.820742 1.296875 185.515625 C-0.33749512 186.44810059 -0.33749512 186.44810059 -2.00488281 187.39941406 C-5 189 -5 189 -10 191 C-9.67 206.84 -9.34 222.68 -9 239 C5.82374735 230.77717064 5.82374735 230.77717064 20.5 222.3125 C28.07948462 217.8682248 35.67412767 213.45267661 43.29296875 209.07617188 C48.53558112 206.06272552 53.76932308 203.03410589 59 200 C59.78197754 199.54802246 60.56395508 199.09604492 61.36962891 198.63037109 C63.25367132 197.536084 65.1287751 196.4285159 67 195.3125 C67.94875 194.75175781 68.8975 194.19101563 69.875 193.61328125 C72.34325698 191.73940233 72.94765791 190.90550174 74 188 C74.19134074 185.0887445 74.27317145 182.27424057 74.25878906 179.36352539 C74.2622937 178.4931514 74.26579834 177.6227774 74.26940918 176.72602844 C74.27820917 173.84982316 74.27238291 170.97386403 74.265625 168.09765625 C74.26697227 166.09752861 74.26891332 164.0974013 74.27142334 162.09727478 C74.27437236 157.90506879 74.27008451 153.71294803 74.26074219 149.52075195 C74.24935519 144.14944443 74.2559038 138.77833694 74.26788712 133.40703678 C74.27511797 129.2763468 74.27281201 125.14570415 74.26763153 121.01501274 C74.26629805 119.03468235 74.26793221 117.05434765 74.27259064 115.07402229 C74.27767512 112.30452234 74.2699182 109.53534509 74.25878906 106.76586914 C74.26486176 105.53991028 74.26486176 105.53991028 74.27105713 104.28918457 C74.23997493 100.10954418 74.03345528 96.70103406 72 93 C69.55944258 91.07896252 69.55944258 91.07896252 66.5234375 89.50390625 C65.39019043 88.87025146 64.25694336 88.23659668 63.08935547 87.58374023 C61.85126815 86.90993621 60.61314885 86.23619096 59.375 85.5625 C58.09818787 84.85332148 56.82231885 84.14244248 55.54736328 83.42993164 C52.94702797 81.9773445 50.34364049 80.530468 47.73828125 79.08691406 C42.40223287 76.1199048 37.1382895 73.03122655 31.875 69.9375 C23.76133908 65.18932802 15.63658108 60.46092901 7.49615479 55.75881958 C5.78847502 54.77222847 4.08148527 53.78444334 2.37451172 52.79663086 C0.82014404 51.89956421 0.82014404 51.89956421 -0.765625 50.984375 C-1.68118164 50.45553711 -2.59673828 49.92669922 -3.54003906 49.38183594 C-5.66764959 48.18669148 -7.8137274 47.0818974 -10 46 C-9.9800145 46.55043976 -9.96002899 47.10087952 -9.93943787 47.66799927 C-9.73993092 53.41029115 -9.60443785 59.15159622 -9.50561523 64.89648438 C-9.46042313 67.03849279 -9.39905346 69.18022459 -9.32104492 71.32128906 C-9.21152629 74.40499015 -9.16076706 77.48501819 -9.12109375 80.5703125 C-9.07464218 81.52366486 -9.02819061 82.47701721 -8.98033142 83.45925903 C-8.97541725 89.96889109 -8.97541725 89.96889109 -11.8182373 92.82981873 C-14.14583236 94.40321778 -16.50164261 95.71776746 -19 97 C-20.197115 97.73190248 -21.38873018 98.47293343 -22.57275391 99.22583008 C-25.6048989 101.04637847 -28.64033389 102.86065408 -31.68457031 104.66088867 C-32.98477685 105.43253867 -34.28196628 106.20929382 -35.57617188 106.9909668 C-37.47390805 108.13691851 -39.38021115 109.26721568 -41.2890625 110.39453125 C-42.41006348 111.06331299 -43.53106445 111.73209473 -44.68603516 112.42114258 C-48.21296546 114.10146218 -51.14775178 114.53050491 -55 115 C-55.1622891 104.02122383 -55.28661925 93.04273361 -55.3626852 82.06300163 C-55.39919619 76.96442126 -55.44870713 71.8666623 -55.52807617 66.76855469 C-55.60421278 61.84719923 -55.64600635 56.92663305 -55.6641407 52.00473404 C-55.67706117 50.12837422 -55.70229312 48.25205696 -55.7401104 46.37603378 C-55.7910434 43.74437378 -55.79791954 41.1159614 -55.79467773 38.48388672 C-55.81984467 37.7106456 -55.8450116 36.93740448 -55.87094116 36.14073181 C-55.82677987 32.82059326 -55.67629845 30.80268915 -53.49167824 28.20979404 C-50.00078003 25.16443117 -46.19004259 22.72382957 -42.15625 20.44921875 C-41.08157471 19.83699463 -40.00689941 19.22477051 -38.8996582 18.59399414 C-37.777771 17.96485107 -36.65588379 17.33570801 -35.5 16.6875 C-33.16889679 15.37013602 -30.84014564 14.0486498 -28.51171875 12.7265625 C-27.39200684 12.09137695 -26.27229492 11.45619141 -25.11865234 10.80175781 C-22.44569103 9.25749176 -19.81721356 7.67071197 -17.20703125 6.0234375 C-16.19576172 5.3878894 -16.19576172 5.3878894 -15.1640625 4.73950195 C-13.45240204 3.65143298 -11.75109655 2.54712027 -10.05078125 1.44140625 C-6.20586142 -0.3752076 -4.22312481 -0.6476641 0 0 Z " fill="#B7A065" transform="translate(112,1)"/>
<path d="M0 0 C0.33 15.51 0.66 31.02 1 47 C1.99 47.495 1.99 47.495 3 48 C-3.67098117 53.41913643 -10.97270543 57.59442535 -18.4375 61.8125 C-20.79169266 63.15003043 -23.14398447 64.4908342 -25.49609375 65.83203125 C-26.52919678 66.41702393 -27.5622998 67.0020166 -28.62670898 67.60473633 C-30.87873962 68.79500578 -30.87873962 68.79500578 -32 70 C-29.03 71.98 -26.06 73.96 -23 76 C-23.99 76.495 -23.99 76.495 -25 77 C-28.00525255 75.71623496 -30.75988192 73.92470729 -33.5625 72.25 C-34.75262695 71.56550781 -34.75262695 71.56550781 -35.96679688 70.8671875 C-37.09891602 70.19816406 -37.09891602 70.19816406 -38.25390625 69.515625 C-38.94814697 69.10602539 -39.6423877 68.69642578 -40.35766602 68.27441406 C-42 67 -42 67 -43 64 C-43.66 64 -44.32 64 -45 64 C-45.17357152 58.69824834 -45.30030928 53.39816344 -45.38452148 48.09423828 C-45.41963692 46.29186179 -45.46734303 44.48968348 -45.52807617 42.68798828 C-45.6134005 40.09097391 -45.65277328 37.49660185 -45.68359375 34.8984375 C-45.71972275 34.0982016 -45.75585175 33.2979657 -45.79307556 32.47348022 C-45.79539638 29.13597223 -45.71810732 26.90471026 -43.59898376 24.23492432 C-40.13434208 21.16545128 -36.25677886 18.77715807 -32.19921875 16.5625 C-31.13896484 15.97726563 -30.07871094 15.39203125 -28.98632812 14.7890625 C-27.89771484 14.19867188 -26.80910156 13.60828125 -25.6875 13 C-23.52392583 11.81398328 -21.36115514 10.62649954 -19.19921875 9.4375 C-18.15813965 8.86773437 -17.11706055 8.29796875 -16.04443359 7.7109375 C-12.30237654 5.60794345 -8.65946748 3.36435468 -5.03442383 1.06640625 C-3 0 -3 0 0 0 Z " fill="#B49D62" transform="translate(102,193)"/>
<path d="M0 0 C0.66 0.33 1.32 0.66 2 1 C-4.67098117 6.41913643 -11.97270543 10.59442535 -19.4375 14.8125 C-21.79169266 16.15003043 -24.14398447 17.4908342 -26.49609375 18.83203125 C-27.52919678 19.41702393 -28.5622998 20.0020166 -29.62670898 20.60473633 C-31.87873962 21.79500578 -31.87873962 21.79500578 -33 23 C-30.03 24.98 -27.06 26.96 -24 29 C-24.66 29.33 -25.32 29.66 -26 30 C-28.8203125 28.56640625 -28.8203125 28.56640625 -32.125 26.5625 C-33.76855469 25.57443359 -33.76855469 25.57443359 -35.4453125 24.56640625 C-36.28835937 24.04949219 -37.13140625 23.53257812 -38 23 C-35.00778337 21.00518891 -31.9598239 19.24788787 -28.828125 17.48046875 C-27.5936567 16.78076354 -26.35928481 16.08088822 -25.125 15.38085938 C-23.19304705 14.2865586 -21.26047919 13.19340585 -19.32617188 12.10327148 C-9.38087485 6.49557067 -9.38087485 6.49557067 0 0 Z " fill="#967E44" transform="translate(103,240)"/>
<path d="M0 0 C-0.79583496 0.4532666 -1.59166992 0.9065332 -2.41162109 1.37353516 C-5.41278907 3.08356885 -8.41336742 4.79462857 -11.41357422 6.50634766 C-12.70305919 7.24177461 -13.99276634 7.97681216 -15.28271484 8.71142578 C-21.45489171 12.22673708 -27.62380764 15.74878541 -33.75 19.34375 C-34.51570313 19.79169922 -35.28140625 20.23964844 -36.0703125 20.70117188 C-38.61710501 22.41535914 -40.3392777 24.43342917 -42 27 C-42.66 26.67 -43.32 26.34 -44 26 C-41.88884954 21.90782359 -39.94118595 19.98838168 -35.94921875 17.73046875 C-34.94656982 17.15498291 -33.9439209 16.57949707 -32.91088867 15.98657227 C-31.84717041 15.39287842 -30.78345215 14.79918457 -29.6875 14.1875 C-28.60766846 13.57382568 -27.52783691 12.96015137 -26.4152832 12.32788086 C-24.26503836 11.10641808 -22.11233118 9.8892785 -19.95703125 8.67675781 C-17.42060462 7.23850004 -14.90770342 5.7713479 -12.40625 4.2734375 C-11.76341064 3.8916333 -11.12057129 3.5098291 -10.45825195 3.11645508 C-8.80763038 2.13400184 -7.15957157 1.14724644 -5.51171875 0.16015625 C-3 -1 -3 -1 0 0 Z " fill="#8D773D" transform="translate(102,194)"/>
</svg>
