<?xml version="1.0" encoding="UTF-8" standalone="no"?>
<svg
   xmlns:dc="http://purl.org/dc/elements/1.1/"
   xmlns:cc="http://creativecommons.org/ns#"
   xmlns:rdf="http://www.w3.org/1999/02/22-rdf-syntax-ns#"
   xmlns:svg="http://www.w3.org/2000/svg"
   xmlns="http://www.w3.org/2000/svg"
   xmlns:sodipodi="http://sodipodi.sourceforge.net/DTD/sodipodi-0.dtd"
   xmlns:inkscape="http://www.inkscape.org/namespaces/inkscape"
   height="514"
   viewBox="-0.365 -0.119 31.996814 31.132"
   width="532"
   version="1.1"
   id="svg4"
   sodipodi:docname="solidworks.svg"
   inkscape:version="1.0.1 (3bc2e813f5, 2020-09-07)">
  <metadata
     id="metadata10">
    <rdf:RDF>
      <cc:Work
         rdf:about="">
        <dc:format>image/svg+xml</dc:format>
        <dc:type
           rdf:resource="http://purl.org/dc/dcmitype/StillImage" />
        <dc:title></dc:title>
      </cc:Work>
    </rdf:RDF>
  </metadata>
  <defs
     id="defs8" />
  <sodipodi:namedview
     pagecolor="#ffffff"
     bordercolor="#666666"
     borderopacity="1"
     objecttolerance="10"
     gridtolerance="10"
     guidetolerance="10"
     inkscape:pageopacity="0"
     inkscape:pageshadow="2"
     inkscape:window-width="1920"
     inkscape:window-height="991"
     id="namedview6"
     showgrid="false"
     inkscape:zoom="0.486"
     inkscape:cx="1250"
     inkscape:cy="257"
     inkscape:window-x="-9"
     inkscape:window-y="-9"
     inkscape:window-maximized="1"
     inkscape:current-layer="svg4" />
  <path
     d="m 28.686,10.567 c -2.617,-0.43 -7.295,-0.596 -8.895,1.856 -1.235,1.894 1.1,4.488 3.226,7.001 1.704,2.013 3.558,3.936 2.801,5.06 -0.618,0.919 -4.581,0.917 -5.947,0.99 -1.657,0.087 -4.045,0.092 -4.462,0.32 -0.374,0.2 -0.582,0.825 0.82,1.076 1.127,0.203 3.812,0.614 6.643,0.612 2.955,0 6.06,-0.485 6.733,-2.773 0.541,-1.838 -1.335,-3.808 -2.985,-5.805 -1.805,-2.188 -3.635,-3.747 -3.48,-5.296 0.117,-1.206 2.48,-1.274 6.402,-1.343 0.815,-0.015 2.439,-0.054 2.126,-0.698 -0.279,-0.569 -1.494,-0.757 -2.982,-1 m -12.062,5.455 c -1.678,-1.151 -4.67,-1.536 -7.132,-1.408 -2.193,0.115 -5.964,0.813 -5.822,1.507 0.134,0.75 2.52,0.517 3.614,0.517 2.405,0 6.222,0.147 6.823,1.696 1.296,3.34 -7.495,9.334 -9.37,8.758 -0.848,-0.259 1.723,-4.617 2.655,-6.183 0.554,-0.936 1.399,-2.405 0.679,-2.506 -0.806,-0.111 -1.693,1.272 -2.27,2.07 -1.564,2.167 -3.165,4.534 -4.45,6.965 -0.399,0.751 -1.716,3.011 -1.264,3.303 0.423,0.272 2.433,-0.115 4.99,-1.129 8.04,-3.182 11.66,-7.33 12.63,-10.757 0.34,-1.207 -0.248,-2.26 -1.083,-2.833 M 10.654,1.385 c -0.164,-0.541 2.517,-1.244 5.458,-1.374 2.963,-0.13 6.468,0.459 7.122,2.414 1.07,3.203 -4.356,7.874 -9.083,10.17 -1.16,0.56 -1.861,0.715 -2.155,0.676 -0.278,-0.037 -0.322,-0.297 -0.231,-0.476 0.167,-0.337 0.932,-1.023 1.951,-1.769 5.322,-3.888 7.052,-6.74 6.047,-7.894 -0.645,-0.74 -3.342,-1.256 -6.144,-1.256 -0.76,0 -2.758,0.166 -2.965,-0.49"
     fill="#ee2722"
     id="path2"
     sodipodi:nodetypes="cccccccccccccccccsccccccccccccccccccsc" />
</svg>
